<svg width="256" height="256" viewBox="0 0 256 256" xmlns="http://www.w3.org/2000/svg" role="img" aria-label="Anka sleep state">
  <defs>
    <radialGradient id="sleep-aura" cx="50%" cy="42%" r="44%">
      <stop offset="0%" stop-color="#f7f9ff" stop-opacity="0.76"/>
      <stop offset="54%" stop-color="#d9e2ff" stop-opacity="0.18"/>
      <stop offset="100%" stop-color="#cbd5ff" stop-opacity="0"/>
    </radialGradient>
    <radialGradient id="sleep-face" cx="46%" cy="30%" r="68%">
      <stop offset="0%" stop-color="#ffffff"/>
      <stop offset="62%" stop-color="#eef3ff"/>
      <stop offset="100%" stop-color="#cad6ff"/>
    </radialGradient>
    <linearGradient id="sleep-body" x1="28%" y1="8%" x2="74%" y2="100%">
      <stop offset="0%" stop-color="#e6ecff"/>
      <stop offset="38%" stop-color="#c0cdf7"/>
      <stop offset="76%" stop-color="#96a8ea"/>
      <stop offset="100%" stop-color="#7888d8"/>
    </linearGradient>
    <linearGradient id="sleep-wing" x1="0%" y1="0%" x2="100%" y2="100%">
      <stop offset="0%" stop-color="#e2e8ff"/>
      <stop offset="56%" stop-color="#b3c0f2"/>
      <stop offset="100%" stop-color="#8c9de6"/>
    </linearGradient>
    <linearGradient id="sleep-tail" x1="0%" y1="0%" x2="100%" y2="100%">
      <stop offset="0%" stop-color="#f3f6ff"/>
      <stop offset="48%" stop-color="#dbe4ff"/>
      <stop offset="100%" stop-color="#9eb0ed"/>
    </linearGradient>
    <linearGradient id="sleep-crest" x1="24%" y1="100%" x2="76%" y2="0%">
      <stop offset="0%" stop-color="#98a9ef"/>
      <stop offset="56%" stop-color="#7e8edc"/>
      <stop offset="100%" stop-color="#f7f9ff"/>
    </linearGradient>
  </defs>

  <ellipse cx="128" cy="128" rx="82" ry="78" fill="url(#sleep-aura)"/>
  <ellipse cx="122" cy="220" rx="48" ry="9" fill="#cfd7ff" opacity="0.14"/>
  <path d="M76 156c-16 18-30 34-43 52 26-7 49-18 70-34" fill="none" stroke="url(#sleep-tail)" stroke-width="12" stroke-linecap="round" opacity="0.92"/>
  <ellipse cx="126" cy="146" rx="50" ry="60" fill="url(#sleep-body)" transform="rotate(-8 126 146)"/>
  <path d="M109 111c-17 6-31 20-38 38 22 2 40-3 52-13 6 10 15 18 28 24 4-27-10-45-42-49z" fill="url(#sleep-wing)" opacity="0.94"/>
  <path d="M152 116c11 8 18 19 22 33-14 0-26-4-36-10 2-8 7-15 14-23z" fill="url(#sleep-wing)" opacity="0.92"/>
  <path d="M106 150c11 0 20 4 28 12 7-7 16-11 27-11-4 20-13 33-29 39-17-6-26-19-26-40z" fill="#f7faff" opacity="0.96"/>
  <circle cx="126" cy="88" r="46" fill="url(#sleep-face)"/>
  <path d="M126 26c6 13 15 18 22 17-6 4-11 6-16 7 11 6 18 15 21 28-12-2-21-7-27-17-1 11-7 22-18 33-5-17-3-31 6-43-8 1-16-1-25-5 11-6 18-12 22-20 4 7 9 12 15 15z" fill="url(#sleep-crest)"/>
  <circle cx="100" cy="108" r="8" fill="#d7dcff" opacity="0.46"/>
  <circle cx="160" cy="102" r="8" fill="#d7dcff" opacity="0.46"/>
  <path d="M102 94q10 10 21 0" fill="none" stroke="#6e7bc8" stroke-width="4" stroke-linecap="round"/>
  <path d="M138 90q10 10 21 0" fill="none" stroke="#6e7bc8" stroke-width="4" stroke-linecap="round"/>
  <path d="M119 108c4-5 12-6 18-1 0 0-2 10-9 14-6-4-9-8-9-13z" fill="#f4c58c"/>
  <path d="M117 124q11 11 23 0" fill="none" stroke="#7280c9" stroke-width="4" stroke-linecap="round"/>
</svg>
