<svg width="320" height="320" viewBox="0 0 320 320" xmlns="http://www.w3.org/2000/svg" role="img" aria-label="Anka happy state">
  <defs>
    <radialGradient id="happy-aura" cx="50%" cy="40%" r="52%">
      <stop offset="0%" stop-color="#fffbe9" stop-opacity="1"/>
      <stop offset="40%" stop-color="#ffe7a5" stop-opacity="0.8"/>
      <stop offset="78%" stop-color="#ffb64f" stop-opacity="0.24"/>
      <stop offset="100%" stop-color="#ffb64f" stop-opacity="0"/>
    </radialGradient>
    <radialGradient id="happy-face" cx="48%" cy="32%" r="70%">
      <stop offset="0%" stop-color="#fffef9"/>
      <stop offset="54%" stop-color="#ffefc5"/>
      <stop offset="100%" stop-color="#ffd886"/>
    </radialGradient>
    <linearGradient id="happy-body" x1="32%" y1="10%" x2="72%" y2="100%">
      <stop offset="0%" stop-color="#ffd56d"/>
      <stop offset="38%" stop-color="#ffb243"/>
      <stop offset="72%" stop-color="#ff9427"/>
      <stop offset="100%" stop-color="#ef6e1d"/>
    </linearGradient>
    <linearGradient id="happy-wing" x1="0%" y1="0%" x2="100%" y2="100%">
      <stop offset="0%" stop-color="#ffc84f"/>
      <stop offset="55%" stop-color="#ff9c2d"/>
      <stop offset="100%" stop-color="#ea6f1f"/>
    </linearGradient>
    <linearGradient id="happy-crest" x1="30%" y1="100%" x2="70%" y2="0%">
      <stop offset="0%" stop-color="#ff8e1d"/>
      <stop offset="56%" stop-color="#ff6f22"/>
      <stop offset="100%" stop-color="#fff6b2"/>
    </linearGradient>
    <linearGradient id="happy-tail" x1="0%" y1="0%" x2="100%" y2="100%">
      <stop offset="0%" stop-color="#fff7c4"/>
      <stop offset="40%" stop-color="#ffd65d"/>
      <stop offset="100%" stop-color="#ff9521"/>
    </linearGradient>
    <linearGradient id="happy-beak" x1="0%" y1="0%" x2="100%" y2="100%">
      <stop offset="0%" stop-color="#ffe99c"/>
      <stop offset="100%" stop-color="#ffaf20"/>
    </linearGradient>
    <filter id="happy-shadow" x="-40%" y="-40%" width="200%" height="200%">
      <feDropShadow dx="0" dy="16" stdDeviation="12" flood-color="#efb46f" flood-opacity="0.22"/>
    </filter>
    <filter id="happy-blur" x="-60%" y="-60%" width="220%" height="220%">
      <feGaussianBlur stdDeviation="8"/>
    </filter>
  </defs>

  <g filter="url(#happy-shadow)">
    <ellipse cx="166" cy="146" rx="118" ry="112" fill="url(#happy-aura)"/>
    <ellipse cx="176" cy="286" rx="64" ry="14" fill="#eec58b" opacity="0.16"/>

    <g opacity="0.58">
      <circle cx="86" cy="88" r="5" fill="#fff7cf"/>
      <circle cx="258" cy="84" r="4" fill="#fff6cc"/>
      <circle cx="238" cy="58" r="3.5" fill="#fff9e1"/>
      <circle cx="112" cy="54" r="3.5" fill="#fff9e1"/>
      <circle cx="256" cy="172" r="3" fill="#fff4ca"/>
      <circle cx="84" cy="178" r="3" fill="#fff4ca"/>
    </g>

    <g>
      <path d="M108 187c-24 18-42 39-56 64 29-5 58-17 84-36" fill="none" stroke="#fff1b8" stroke-width="22" stroke-linecap="round" opacity="0.2" filter="url(#happy-blur)"/>
      <path d="M112 188c-20 18-38 37-53 59 27-5 53-15 78-31" fill="none" stroke="url(#happy-tail)" stroke-width="18" stroke-linecap="round"/>
      <path d="M126 194c-13 14-25 28-36 43 19-3 38-10 56-21" fill="none" stroke="url(#happy-tail)" stroke-width="14" stroke-linecap="round"/>
      <path d="M140 200c-7 10-14 18-21 26 13-2 24-6 34-13" fill="none" stroke="#fff3a6" stroke-width="9" stroke-linecap="round" opacity="0.9"/>
    </g>

    <ellipse cx="188" cy="184" rx="56" ry="78" fill="url(#happy-body)" transform="rotate(15 188 184)"/>
    <path d="M142 173c15 1 31 8 43 23 11-13 25-20 44-23-4 27-17 47-41 59-27-9-44-29-46-59z" fill="#fff5da" opacity="0.98"/>
    <path d="M150 176c11 2 21 8 30 20 9-12 19-18 31-21" fill="none" stroke="#fff9ef" stroke-width="7" stroke-linecap="round" opacity="0.96"/>

    <g>
      <path d="M128 152c-22 9-41 27-56 55 28 5 52 4 70-4 4-18 2-35-14-51z" fill="url(#happy-wing)"/>
      <path d="M121 164c-14 6-26 15-35 29 17 3 32 2 45-3" fill="#ffd96e" opacity="0.78"/>
      <path d="M204 141c25 4 47 23 65 58-23 9-43 11-60 4-8-20-10-37-5-62z" fill="url(#happy-wing)"/>
      <path d="M211 154c16 4 30 14 42 30-14 4-27 4-39 0" fill="#ffd96e" opacity="0.76"/>
    </g>

    <circle cx="174" cy="104" r="66" fill="url(#happy-face)"/>

    <g>
      <path d="M171 22c9 15 20 21 29 20-8 5-15 7-21 8 14 8 24 20 28 38-15-3-28-11-36-25-2 14-10 30-26 43-6-22-3-39 10-54-10 1-21-1-33-6 15-8 24-17 31-28 5 8 11 15 18 19z" fill="url(#happy-crest)"/>
      <path d="M171 34c6 10 13 15 19 15-5 3-9 5-14 5 10 5 17 13 19 24-10-2-17-7-23-15-2 8-8 17-16 26-4-15-2-27 6-39-8 1-14-1-20-4 10-5 17-10 21-16 2 2 5 3 8 4z" fill="#fff7b2" opacity="0.62"/>
    </g>

    <circle cx="122" cy="132" r="12" fill="#ffcfc4" opacity="0.56"/>
    <circle cx="229" cy="126" r="12" fill="#ffcfc4" opacity="0.56"/>

    <path d="M144 109q11-13 24 0" fill="none" stroke="#8c4622" stroke-width="6" stroke-linecap="round"/>
    <path d="M193 102q11-13 24 0" fill="none" stroke="#8c4622" stroke-width="6" stroke-linecap="round"/>

    <path d="M167 124c6-8 17-9 27-1 0 0-2 14-14 20-9-5-13-11-13-19z" fill="url(#happy-beak)"/>
    <path d="M161 143q19 22 39 2" fill="none" stroke="#8c4622" stroke-width="6.5" stroke-linecap="round"/>

    <path d="M166 252c-4 13-10 23-18 32 13-2 21-9 25-23" fill="#ef8920"/>
    <path d="M198 256c0 11 2 20 6 28 8-6 10-13 8-23" fill="#ef8920"/>
  </g>
</svg>
