<svg width="320" height="320" viewBox="0 0 320 320" xmlns="http://www.w3.org/2000/svg" role="img" aria-label="Anka hide state">
  <defs>
    <radialGradient id="hide-aura" cx="50%" cy="40%" r="48%">
      <stop offset="0%" stop-color="#fffbe9" stop-opacity="0.92"/>
      <stop offset="40%" stop-color="#ffe7a5" stop-opacity="0.48"/>
      <stop offset="78%" stop-color="#ffb64f" stop-opacity="0.12"/>
      <stop offset="100%" stop-color="#ffb64f" stop-opacity="0"/>
    </radialGradient>
    <radialGradient id="hide-face" cx="48%" cy="32%" r="70%">
      <stop offset="0%" stop-color="#fffef9"/>
      <stop offset="54%" stop-color="#ffefc5"/>
      <stop offset="100%" stop-color="#ffd886"/>
    </radialGradient>
    <linearGradient id="hide-body" x1="32%" y1="10%" x2="72%" y2="100%">
      <stop offset="0%" stop-color="#ffd56d"/>
      <stop offset="38%" stop-color="#ffb243"/>
      <stop offset="72%" stop-color="#ff9427"/>
      <stop offset="100%" stop-color="#ef6e1d"/>
    </linearGradient>
    <linearGradient id="hide-wing" x1="0%" y1="0%" x2="100%" y2="100%">
      <stop offset="0%" stop-color="#ffc84f"/>
      <stop offset="55%" stop-color="#ff9c2d"/>
      <stop offset="100%" stop-color="#ea6f1f"/>
    </linearGradient>
    <linearGradient id="hide-crest" x1="30%" y1="100%" x2="70%" y2="0%">
      <stop offset="0%" stop-color="#ff8e1d"/>
      <stop offset="56%" stop-color="#ff6f22"/>
      <stop offset="100%" stop-color="#fff6b2"/>
    </linearGradient>
    <linearGradient id="hide-tail" x1="0%" y1="0%" x2="100%" y2="100%">
      <stop offset="0%" stop-color="#fff7c4"/>
      <stop offset="40%" stop-color="#ffd65d"/>
      <stop offset="100%" stop-color="#ff9521"/>
    </linearGradient>
    <linearGradient id="hide-beak" x1="0%" y1="0%" x2="100%" y2="100%">
      <stop offset="0%" stop-color="#ffe99c"/>
      <stop offset="100%" stop-color="#ffaf20"/>
    </linearGradient>
    <filter id="hide-shadow" x="-40%" y="-40%" width="200%" height="200%">
      <feDropShadow dx="0" dy="16" stdDeviation="12" flood-color="#efb46f" flood-opacity="0.2"/>
    </filter>
  </defs>

  <g filter="url(#hide-shadow)">
    <ellipse cx="160" cy="150" rx="112" ry="108" fill="url(#hide-aura)"/>
    <ellipse cx="164" cy="286" rx="66" ry="14" fill="#eec58b" opacity="0.16"/>

    <g>
      <path d="M108 186c-26 18-46 40-62 67 30-6 59-18 88-38" fill="none" stroke="#fff1b8" stroke-width="20" stroke-linecap="round" opacity="0.18"/>
      <path d="M112 186c-22 18-41 38-58 62 29-5 55-16 82-34" fill="none" stroke="url(#hide-tail)" stroke-width="17" stroke-linecap="round"/>
      <path d="M126 192c-15 14-28 29-40 45 20-4 39-12 58-24" fill="none" stroke="url(#hide-tail)" stroke-width="13" stroke-linecap="round"/>
    </g>

    <ellipse cx="178" cy="185" rx="58" ry="78" fill="url(#hide-body)" transform="rotate(12 178 185)"/>
    <path d="M132 174c16 0 32 7 44 23 11-14 26-21 46-23-4 28-18 48-43 60-27-9-44-29-47-60z" fill="#fff5da" opacity="0.98"/>
    <path d="M140 176c11 2 22 8 31 20 10-12 20-18 33-21" fill="none" stroke="#fff9ef" stroke-width="7" stroke-linecap="round" opacity="0.96"/>

    <circle cx="164" cy="112" r="66" fill="url(#hide-face)"/>

    <g>
      <path d="M164 30c9 15 20 21 29 20-8 5-15 7-21 8 14 8 24 20 28 38-15-3-28-11-36-25-2 14-10 30-26 43-6-22-3-39 10-54-10 1-21-1-33-6 15-8 24-17 31-28 5 8 11 15 18 19z" fill="url(#hide-crest)"/>
      <path d="M164 42c6 10 13 15 19 15-5 3-9 5-14 5 10 5 17 13 19 24-10-2-17-7-23-15-2 8-8 17-16 26-4-15-2-27 6-39-8 1-14-1-20-4 10-5 17-10 21-16 2 2 5 3 8 4z" fill="#fff7b2" opacity="0.62"/>
    </g>

    <g>
      <path d="M132 92c-30 4-54 24-70 58 29 10 54 10 74 2 6-18 5-39-4-60z" fill="url(#hide-wing)"/>
      <path d="M126 104c-18 4-33 14-43 30 18 4 33 4 46 1" fill="#ffd96e" opacity="0.78"/>
      <path d="M196 92c27 6 50 26 66 58-28 10-53 10-73 2-7-20-6-40 7-60z" fill="url(#hide-wing)"/>
      <path d="M201 104c18 5 33 15 43 31-18 4-33 4-46 0" fill="#ffd96e" opacity="0.76"/>
    </g>

    <path d="M155 147c5-7 15-8 24-1 0 0-2 12-12 18-8-5-12-10-12-17z" fill="url(#hide-beak)"/>
    <path d="M153 167q13 10 27 0" fill="none" stroke="#8c4622" stroke-width="5" stroke-linecap="round"/>

    <path d="M152 255c-5 13-12 23-20 31 13-2 22-10 26-24" fill="#ef8920"/>
    <path d="M184 258c-1 12 0 21 3 29 8-6 11-14 10-24" fill="#ef8920"/>
  </g>
</svg>
