<svg xmlns="http://www.w3.org/2000/svg" viewBox="0 0 200 200">
  <defs>
    <radialGradient id="ballGlow" cx="50%" cy="40%" r="60%">
      <stop offset="0%" stop-color="#fff8db"/>
      <stop offset="100%" stop-color="#ffd463"/>
    </radialGradient>
    <linearGradient id="ballOrange" x1="0%" y1="0%" x2="100%" y2="100%">
      <stop offset="0%" stop-color="#ffaf4b"/>
      <stop offset="100%" stop-color="#f37239"/>
    </linearGradient>
    <linearGradient id="ballRed" x1="0%" y1="0%" x2="100%" y2="100%">
      <stop offset="0%" stop-color="#ff7d62"/>
      <stop offset="100%" stop-color="#ff4f59"/>
    </linearGradient>
  </defs>
  <ellipse cx="100" cy="174" rx="54" ry="15" fill="#f6d6aa" opacity=".45"/>
  <circle cx="100" cy="96" r="72" fill="url(#ballGlow)"/>
  <path d="M100 24a72 72 0 0 1 0 144A72 72 0 0 1 100 24Z" fill="url(#ballOrange)"/>
  <path d="M100 24c21 17 31 41 31 72s-10 55-31 72c30-5 54-34 54-72s-24-67-54-72Z" fill="url(#ballRed)"/>
  <path d="M100 24c-21 17-31 41-31 72s10 55 31 72c-30-5-54-34-54-72s24-67 54-72Z" fill="#ffcc57"/>
  <path d="M76 42c13 15 19 33 19 54 0 26-9 49-26 68" fill="none" stroke="#fff5dc" stroke-linecap="round" stroke-width="10"/>
  <path d="M124 42c-13 15-19 33-19 54 0 26 9 49 26 68" fill="none" stroke="#fff5dc" stroke-linecap="round" stroke-width="10"/>
  <path d="M38 100c20-12 41-18 62-18 28 0 50 8 68 23" fill="none" stroke="#fff5dc" stroke-linecap="round" stroke-width="10"/>
  <circle cx="76" cy="66" r="12" fill="#fff9ee" opacity=".7"/>
</svg>
