<svg width="256" height="256" viewBox="0 0 256 256" xmlns="http://www.w3.org/2000/svg" role="img" aria-label="Anka kuşu maskotu">
  <defs>
    <linearGradient id="bodyGrad" x1="0" y1="0" x2="1" y2="1">
      <stop offset="0" stop-color="#ffce88" />
      <stop offset="1" stop-color="#ff8e5a" />
    </linearGradient>
    <linearGradient id="wingGrad" x1="0" y1="0" x2="1" y2="1">
      <stop offset="0" stop-color="#ff6f88" />
      <stop offset="1" stop-color="#ff9d5d" />
    </linearGradient>
  </defs>

  <rect width="256" height="256" rx="48" fill="#ffe9c8" />
  <circle cx="128" cy="126" r="58" fill="url(#bodyGrad)" />
  <path d="M72 136c-24-3-38 24-24 42 15 18 42 10 54-8" fill="url(#wingGrad)" />
  <path d="M184 136c24-3 38 24 24 42-15 18-42 10-54-8" fill="url(#wingGrad)" />
  <path d="M98 90c0-16 13-29 30-29s30 13 30 29" stroke="#f15e4c" stroke-width="10" fill="none" stroke-linecap="round" />
  <circle cx="108" cy="120" r="7" fill="#2f2d44" />
  <circle cx="148" cy="120" r="7" fill="#2f2d44" />
  <path d="M110 148c12 11 24 11 36 0" stroke="#2f2d44" stroke-width="6" fill="none" stroke-linecap="round" />
  <path d="M124 132l8 0 4 10-16 0z" fill="#ffb24d" />
  <path d="M126 62l-14-22" stroke="#ff7e4f" stroke-width="8" stroke-linecap="round" />
  <path d="M142 62l14-22" stroke="#ff7e4f" stroke-width="8" stroke-linecap="round" />
</svg>
