<svg viewBox="0 0 300 300" xmlns="http://www.w3.org/2000/svg" role="img" aria-label="Pofi cloud mascot">
  <defs>
    <radialGradient id="bg" cx="50%" cy="40%" r="52%">
      <stop offset="0%" stop-color="#fffdf5" stop-opacity="0.95"/>
      <stop offset="100%" stop-color="#ffe7a2" stop-opacity="0"/>
    </radialGradient>
    <linearGradient id="cloud" x1="0%" y1="0%" x2="0%" y2="100%">
      <stop offset="0%" stop-color="#ffffff"/>
      <stop offset="100%" stop-color="#e7f5ff"/>
    </linearGradient>
  </defs>
  <circle cx="150" cy="144" r="108" fill="url(#bg)"/>
  <ellipse cx="150" cy="226" rx="74" ry="16" fill="#b6d8e7" opacity="0.18"/>
  <path d="M96 184c-26 0-48-20-48-46 0-21 14-39 34-45 8-30 33-50 64-50 23 0 44 11 57 29 6-2 13-3 20-3 33 0 59 26 59 59 0 5-1 10-2 14 13 8 22 22 22 39 0 26-21 47-47 47H96z" fill="url(#cloud)" stroke="#d2ebf8" stroke-width="6" stroke-linejoin="round"/>
  <circle cx="124" cy="152" r="12" fill="#2f4a68"/>
  <circle cx="189" cy="152" r="12" fill="#2f4a68"/>
  <circle cx="128" cy="147" r="4" fill="#fff"/>
  <circle cx="193" cy="147" r="4" fill="#fff"/>
  <ellipse cx="104" cy="172" rx="11" ry="7" fill="#ffc4cf" opacity="0.76"/>
  <ellipse cx="209" cy="172" rx="11" ry="7" fill="#ffc4cf" opacity="0.76"/>
  <path d="M130 186c10 12 31 12 41 0" fill="none" stroke="#36506e" stroke-width="6" stroke-linecap="round"/>
</svg>
