<svg width="320" height="320" viewBox="0 0 320 320" xmlns="http://www.w3.org/2000/svg" role="img" aria-label="Anka idle state">
  <defs>
    <radialGradient id="idle-aura" cx="50%" cy="40%" r="50%">
      <stop offset="0%" stop-color="#fffbe9" stop-opacity="0.98"/>
      <stop offset="40%" stop-color="#ffe7a5" stop-opacity="0.72"/>
      <stop offset="78%" stop-color="#ffb64f" stop-opacity="0.18"/>
      <stop offset="100%" stop-color="#ffb64f" stop-opacity="0"/>
    </radialGradient>
    <radialGradient id="idle-face" cx="48%" cy="32%" r="70%">
      <stop offset="0%" stop-color="#fffef9"/>
      <stop offset="54%" stop-color="#ffefc5"/>
      <stop offset="100%" stop-color="#ffd886"/>
    </radialGradient>
    <linearGradient id="idle-body" x1="32%" y1="10%" x2="72%" y2="100%">
      <stop offset="0%" stop-color="#ffd56d"/>
      <stop offset="38%" stop-color="#ffb243"/>
      <stop offset="72%" stop-color="#ff9427"/>
      <stop offset="100%" stop-color="#ef6e1d"/>
    </linearGradient>
    <linearGradient id="idle-wing" x1="0%" y1="0%" x2="100%" y2="100%">
      <stop offset="0%" stop-color="#ffc84f"/>
      <stop offset="55%" stop-color="#ff9c2d"/>
      <stop offset="100%" stop-color="#ea6f1f"/>
    </linearGradient>
    <linearGradient id="idle-crest" x1="30%" y1="100%" x2="70%" y2="0%">
      <stop offset="0%" stop-color="#ff8e1d"/>
      <stop offset="56%" stop-color="#ff6f22"/>
      <stop offset="100%" stop-color="#fff6b2"/>
    </linearGradient>
    <linearGradient id="idle-tail" x1="0%" y1="0%" x2="100%" y2="100%">
      <stop offset="0%" stop-color="#fff7c4"/>
      <stop offset="40%" stop-color="#ffd65d"/>
      <stop offset="100%" stop-color="#ff9521"/>
    </linearGradient>
    <radialGradient id="idle-eye" cx="50%" cy="35%" r="72%">
      <stop offset="0%" stop-color="#875332"/>
      <stop offset="55%" stop-color="#3a1a10"/>
      <stop offset="100%" stop-color="#150603"/>
    </radialGradient>
    <linearGradient id="idle-beak" x1="0%" y1="0%" x2="100%" y2="100%">
      <stop offset="0%" stop-color="#ffe99c"/>
      <stop offset="100%" stop-color="#ffaf20"/>
    </linearGradient>
    <filter id="idle-shadow" x="-40%" y="-40%" width="200%" height="200%">
      <feDropShadow dx="0" dy="16" stdDeviation="12" flood-color="#efb46f" flood-opacity="0.22"/>
    </filter>
    <filter id="idle-blur" x="-60%" y="-60%" width="220%" height="220%">
      <feGaussianBlur stdDeviation="8"/>
    </filter>
  </defs>

  <g filter="url(#idle-shadow)">
    <ellipse cx="160" cy="150" rx="112" ry="108" fill="url(#idle-aura)"/>
    <ellipse cx="164" cy="286" rx="66" ry="14" fill="#eec58b" opacity="0.18"/>

    <g opacity="0.55">
      <circle cx="78" cy="98" r="5" fill="#fff7cf"/>
      <circle cx="242" cy="90" r="4" fill="#fff6cc"/>
      <circle cx="226" cy="62" r="3.5" fill="#fff9e1"/>
      <circle cx="102" cy="58" r="3.5" fill="#fff9e1"/>
      <circle cx="250" cy="162" r="3" fill="#fff4ca"/>
      <circle cx="76" cy="176" r="3" fill="#fff4ca"/>
    </g>

    <g>
      <path d="M108 186c-26 18-46 40-62 67 30-6 59-18 88-38" fill="none" stroke="#fff1b8" stroke-width="22" stroke-linecap="round" opacity="0.2" filter="url(#idle-blur)"/>
      <path d="M112 186c-22 18-41 38-58 62 29-5 55-16 82-34" fill="none" stroke="url(#idle-tail)" stroke-width="18" stroke-linecap="round"/>
      <path d="M126 192c-15 14-28 29-40 45 20-4 39-12 58-24" fill="none" stroke="url(#idle-tail)" stroke-width="14" stroke-linecap="round"/>
      <path d="M140 197c-9 11-16 20-24 29 14-2 26-7 37-15" fill="none" stroke="#fff3a6" stroke-width="9" stroke-linecap="round" opacity="0.9"/>
    </g>

    <ellipse cx="178" cy="185" rx="58" ry="78" fill="url(#idle-body)" transform="rotate(12 178 185)"/>
    <path d="M132 174c16 0 32 7 44 23 11-14 26-21 46-23-4 28-18 48-43 60-27-9-44-29-47-60z" fill="#fff5da" opacity="0.98"/>
    <path d="M140 176c11 2 22 8 31 20 10-12 20-18 33-21" fill="none" stroke="#fff9ef" stroke-width="7" stroke-linecap="round" opacity="0.96"/>

    <g>
      <path d="M122 154c-22 4-42 18-57 42 26 8 49 9 66 2 2-17 0-32-9-44z" fill="url(#idle-wing)"/>
      <path d="M118 164c-15 3-29 11-38 24 16 4 30 4 43 0" fill="#ffd96e" opacity="0.78"/>
      <path d="M202 156c9 8 17 21 21 39-16 0-28-4-37-11-1-12 3-22 16-28z" fill="url(#idle-wing)"/>
      <path d="M203 166c7 5 11 11 14 19-8 0-15-2-20-6" fill="#ffd96e" opacity="0.76"/>
    </g>

    <circle cx="164" cy="112" r="66" fill="url(#idle-face)"/>
    <path d="M117 111c3-42 34-67 88-56-11 11-23 16-36 14 14 4 27 1 39-9-2 27-19 47-49 59" fill="#fff8d4" opacity="0.34"/>

    <g>
      <path d="M164 30c9 15 20 21 29 20-8 5-15 7-21 8 14 8 24 20 28 38-15-3-28-11-36-25-2 14-10 30-26 43-6-22-3-39 10-54-10 1-21-1-33-6 15-8 24-17 31-28 5 8 11 15 18 19z" fill="url(#idle-crest)"/>
      <path d="M164 42c6 10 13 15 19 15-5 3-9 5-14 5 10 5 17 13 19 24-10-2-17-7-23-15-2 8-8 17-16 26-4-15-2-27 6-39-8 1-14-1-20-4 10-5 17-10 21-16 2 2 5 3 8 4z" fill="#fff7b2" opacity="0.62"/>
    </g>

    <ellipse cx="141" cy="116" rx="22" ry="26" fill="url(#idle-eye)" transform="rotate(-8 141 116)"/>
    <ellipse cx="189" cy="112" rx="21" ry="25" fill="url(#idle-eye)" transform="rotate(10 189 112)"/>
    <circle cx="133" cy="106" r="8.5" fill="#fff"/>
    <circle cx="181" cy="101" r="8" fill="#fff"/>
    <circle cx="146" cy="125" r="3.8" fill="#fff"/>
    <circle cx="194" cy="121" r="3.4" fill="#fff"/>

    <circle cx="112" cy="140" r="12" fill="#ffcfc4" opacity="0.56"/>
    <circle cx="217" cy="134" r="12" fill="#ffcfc4" opacity="0.56"/>

    <path d="M155 132c5-7 15-8 24-1 0 0-2 12-12 18-8-5-12-10-12-17z" fill="url(#idle-beak)"/>
    <path d="M151 152q14 15 30 0" fill="none" stroke="#8c4622" stroke-width="5.5" stroke-linecap="round"/>

    <path d="M152 255c-5 13-12 23-20 31 13-2 22-10 26-24" fill="#ef8920"/>
    <path d="M184 258c-1 12 0 21 3 29 8-6 11-14 10-24" fill="#ef8920"/>
  </g>
</svg>
