<svg width="320" height="320" viewBox="0 0 320 320" xmlns="http://www.w3.org/2000/svg" role="img" aria-label="Anka guide state">
  <defs>
    <radialGradient id="guide-aura" cx="50%" cy="40%" r="52%">
      <stop offset="0%" stop-color="#fffbe9" stop-opacity="0.98"/>
      <stop offset="40%" stop-color="#ffe7a5" stop-opacity="0.74"/>
      <stop offset="78%" stop-color="#ffb64f" stop-opacity="0.18"/>
      <stop offset="100%" stop-color="#ffb64f" stop-opacity="0"/>
    </radialGradient>
    <radialGradient id="guide-face" cx="48%" cy="32%" r="70%">
      <stop offset="0%" stop-color="#fffef9"/>
      <stop offset="54%" stop-color="#ffefc5"/>
      <stop offset="100%" stop-color="#ffd886"/>
    </radialGradient>
    <linearGradient id="guide-body" x1="32%" y1="10%" x2="72%" y2="100%">
      <stop offset="0%" stop-color="#ffd56d"/>
      <stop offset="38%" stop-color="#ffb243"/>
      <stop offset="72%" stop-color="#ff9427"/>
      <stop offset="100%" stop-color="#ef6e1d"/>
    </linearGradient>
    <linearGradient id="guide-wing" x1="0%" y1="0%" x2="100%" y2="100%">
      <stop offset="0%" stop-color="#ffc84f"/>
      <stop offset="55%" stop-color="#ff9c2d"/>
      <stop offset="100%" stop-color="#ea6f1f"/>
    </linearGradient>
    <linearGradient id="guide-crest" x1="30%" y1="100%" x2="70%" y2="0%">
      <stop offset="0%" stop-color="#ff8e1d"/>
      <stop offset="56%" stop-color="#ff6f22"/>
      <stop offset="100%" stop-color="#fff6b2"/>
    </linearGradient>
    <linearGradient id="guide-tail" x1="0%" y1="0%" x2="100%" y2="100%">
      <stop offset="0%" stop-color="#fff7c4"/>
      <stop offset="40%" stop-color="#ffd65d"/>
      <stop offset="100%" stop-color="#ff9521"/>
    </linearGradient>
    <radialGradient id="guide-eye" cx="50%" cy="35%" r="72%">
      <stop offset="0%" stop-color="#875332"/>
      <stop offset="55%" stop-color="#3a1a10"/>
      <stop offset="100%" stop-color="#150603"/>
    </radialGradient>
    <linearGradient id="guide-beak" x1="0%" y1="0%" x2="100%" y2="100%">
      <stop offset="0%" stop-color="#ffe99c"/>
      <stop offset="100%" stop-color="#ffaf20"/>
    </linearGradient>
    <filter id="guide-shadow" x="-40%" y="-40%" width="200%" height="200%">
      <feDropShadow dx="0" dy="16" stdDeviation="12" flood-color="#efb46f" flood-opacity="0.22"/>
    </filter>
    <filter id="guide-blur" x="-60%" y="-60%" width="220%" height="220%">
      <feGaussianBlur stdDeviation="8"/>
    </filter>
  </defs>

  <g filter="url(#guide-shadow)">
    <ellipse cx="164" cy="146" rx="114" ry="110" fill="url(#guide-aura)"/>
    <ellipse cx="174" cy="286" rx="64" ry="14" fill="#eec58b" opacity="0.16"/>

    <g opacity="0.56">
      <circle cx="84" cy="92" r="5" fill="#fff7cf"/>
      <circle cx="252" cy="86" r="4" fill="#fff6cc"/>
      <circle cx="232" cy="58" r="3.5" fill="#fff9e1"/>
      <circle cx="108" cy="56" r="3.5" fill="#fff9e1"/>
      <circle cx="252" cy="170" r="3" fill="#fff4ca"/>
      <circle cx="82" cy="176" r="3" fill="#fff4ca"/>
    </g>

    <g>
      <path d="M106 188c-23 18-41 39-55 64 28-5 56-17 83-36" fill="none" stroke="#fff1b8" stroke-width="22" stroke-linecap="round" opacity="0.2" filter="url(#guide-blur)"/>
      <path d="M110 189c-19 18-37 37-52 59 27-5 51-15 77-31" fill="none" stroke="url(#guide-tail)" stroke-width="18" stroke-linecap="round"/>
      <path d="M124 195c-12 14-24 28-35 43 19-3 37-10 55-21" fill="none" stroke="url(#guide-tail)" stroke-width="14" stroke-linecap="round"/>
      <path d="M138 200c-7 10-14 18-21 26 13-2 24-6 34-13" fill="none" stroke="#fff3a6" stroke-width="9" stroke-linecap="round" opacity="0.9"/>
    </g>

    <ellipse cx="188" cy="180" rx="56" ry="78" fill="url(#guide-body)" transform="rotate(16 188 180)"/>
    <path d="M142 170c15 1 31 8 43 23 11-13 25-20 44-23-4 27-17 47-41 59-27-9-44-29-46-59z" fill="#fff5da" opacity="0.98"/>
    <path d="M150 173c11 2 21 8 30 20 9-12 19-18 31-21" fill="none" stroke="#fff9ef" stroke-width="7" stroke-linecap="round" opacity="0.96"/>

    <g>
      <path d="M128 153c-22 8-41 26-56 54 29 5 53 4 71-4 2-19-4-34-15-50z" fill="url(#guide-wing)"/>
      <path d="M121 165c-14 6-26 15-35 29 17 3 32 2 45-3" fill="#ffd96e" opacity="0.78"/>
      <path d="M207 144c24 1 46 18 67 53-23 11-43 14-60 8-6-18-9-35-7-61z" fill="url(#guide-wing)"/>
      <path d="M214 156c15 3 29 12 42 27-14 5-27 6-39 3" fill="#ffd96e" opacity="0.76"/>
    </g>

    <circle cx="174" cy="104" r="66" fill="url(#guide-face)"/>
    <path d="M128 103c3-42 34-67 88-56-11 11-23 16-36 14 14 4 27 1 39-9-2 27-19 47-49 59" fill="#fff8d4" opacity="0.34"/>

    <g>
      <path d="M171 22c9 15 20 21 29 20-8 5-15 7-21 8 14 8 24 20 28 38-15-3-28-11-36-25-2 14-10 30-26 43-6-22-3-39 10-54-10 1-21-1-33-6 15-8 24-17 31-28 5 8 11 15 18 19z" fill="url(#guide-crest)"/>
      <path d="M171 34c6 10 13 15 19 15-5 3-9 5-14 5 10 5 17 13 19 24-10-2-17-7-23-15-2 8-8 17-16 26-4-15-2-27 6-39-8 1-14-1-20-4 10-5 17-10 21-16 2 2 5 3 8 4z" fill="#fff7b2" opacity="0.62"/>
    </g>

    <ellipse cx="151" cy="109" rx="22" ry="26" fill="url(#guide-eye)" transform="rotate(-8 151 109)"/>
    <ellipse cx="202" cy="103" rx="21" ry="25" fill="url(#guide-eye)" transform="rotate(10 202 103)"/>
    <circle cx="143" cy="99" r="8.5" fill="#fff"/>
    <circle cx="194" cy="93" r="8" fill="#fff"/>
    <circle cx="156" cy="118" r="3.8" fill="#fff"/>
    <circle cx="207" cy="113" r="3.4" fill="#fff"/>

    <circle cx="122" cy="132" r="12" fill="#ffcfc4" opacity="0.56"/>
    <circle cx="229" cy="126" r="12" fill="#ffcfc4" opacity="0.56"/>

    <path d="M167 122c6-8 17-9 27-1 0 0-2 14-14 20-9-5-13-11-13-19z" fill="url(#guide-beak)"/>
    <path d="M162 142q18 20 37 1" fill="none" stroke="#8c4622" stroke-width="6" stroke-linecap="round"/>

    <path d="M166 252c-4 13-10 23-18 32 13-2 21-9 25-23" fill="#ef8920"/>
    <path d="M198 256c0 11 2 20 6 28 8-6 10-13 8-23" fill="#ef8920"/>
  </g>
</svg>
