<svg viewBox="0 0 300 300" xmlns="http://www.w3.org/2000/svg" role="img" aria-label="Pofi sleep cloud">
  <defs>
    <radialGradient id="bg" cx="50%" cy="42%" r="54%">
      <stop offset="0%" stop-color="#dee7ff" stop-opacity="0.9"/>
      <stop offset="100%" stop-color="#7e8dff" stop-opacity="0"/>
    </radialGradient>
    <linearGradient id="cloud" x1="0%" y1="0%" x2="0%" y2="100%">
      <stop offset="0%" stop-color="#f7fbff"/>
      <stop offset="100%" stop-color="#d8e6ff"/>
    </linearGradient>
  </defs>
  <circle cx="150" cy="144" r="108" fill="url(#bg)"/>
  <circle cx="222" cy="74" r="18" fill="#fff0aa" opacity="0.95"/>
  <circle cx="228" cy="70" r="18" fill="#c4d6ff"/>
  <ellipse cx="150" cy="226" rx="74" ry="16" fill="#8aa0d0" opacity="0.18"/>
  <path d="M96 184c-26 0-48-20-48-46 0-21 14-39 34-45 8-30 33-50 64-50 23 0 44 11 57 29 6-2 13-3 20-3 33 0 59 26 59 59 0 5-1 10-2 14 13 8 22 22 22 39 0 26-21 47-47 47H96z" fill="url(#cloud)" stroke="#d7e4ff" stroke-width="6" stroke-linejoin="round"/>
  <path d="M108 146q14-14 28 0" fill="none" stroke="#5d6d99" stroke-width="6" stroke-linecap="round"/>
  <path d="M164 146q14-14 28 0" fill="none" stroke="#5d6d99" stroke-width="6" stroke-linecap="round"/>
  <ellipse cx="104" cy="166" rx="10" ry="6" fill="#ffcad6" opacity="0.52"/>
  <ellipse cx="208" cy="166" rx="10" ry="6" fill="#ffcad6" opacity="0.52"/>
  <path d="M132 179c10 8 26 8 36 0" fill="none" stroke="#6b7ca8" stroke-width="5" stroke-linecap="round"/>
</svg>
