<svg viewBox="0 0 300 320" xmlns="http://www.w3.org/2000/svg" role="img" aria-label="Pofi guiding cloud">
  <defs>
    <radialGradient id="glow" cx="50%" cy="36%" r="56%">
      <stop offset="0%" stop-color="#fffef8" stop-opacity="0.98"/>
      <stop offset="100%" stop-color="#ffd98a" stop-opacity="0"/>
    </radialGradient>
    <linearGradient id="cloud" x1="0%" y1="0%" x2="0%" y2="100%">
      <stop offset="0%" stop-color="#ffffff"/>
      <stop offset="100%" stop-color="#e3f4ff"/>
    </linearGradient>
    <linearGradient id="hand" x1="0%" y1="0%" x2="0%" y2="100%">
      <stop offset="0%" stop-color="#f8fdff"/>
      <stop offset="100%" stop-color="#d6efff"/>
    </linearGradient>
  </defs>
  <circle cx="156" cy="146" r="116" fill="url(#glow)"/>
  <ellipse cx="154" cy="248" rx="80" ry="17" fill="#bfdbe8" opacity="0.16"/>
  <g transform="rotate(-6 154 176)">
    <path d="M100 194c-27 0-49-20-49-46 0-21 14-40 35-45 8-31 34-51 66-51 24 0 45 11 58 30 7-3 14-4 22-4 34 0 62 28 62 62 0 5-1 10-2 15 12 8 20 22 20 38 0 26-21 47-47 47H100z" fill="url(#cloud)" stroke="#d5edf8" stroke-width="6"/>
    <g fill="url(#hand)" stroke="#d5edf8" stroke-width="3">
      <path d="M110 206c-14 5-26 16-31 30 13-3 25-1 36 4 6 7 13 11 21 13 4-8 4-17 1-25 6-6 10-12 12-20-12-3-25-4-39-2z"/>
      <path d="M208 177c15 0 30 9 36 24 4 11 4 24 0 35-8-6-16-12-24-15-4-9-11-18-21-25 1-8 4-14 9-19z"/>
    </g>
    <circle cx="125" cy="156" r="13" fill="#324d68"/>
    <circle cx="190" cy="150" r="13" fill="#324d68"/>
    <circle cx="129" cy="151" r="4" fill="#fff"/>
    <circle cx="194" cy="145" r="4" fill="#fff"/>
    <ellipse cx="106" cy="178" rx="11" ry="7" fill="#ffc7d2" opacity="0.76"/>
    <ellipse cx="210" cy="170" rx="11" ry="7" fill="#ffc7d2" opacity="0.76"/>
    <path d="M136 186 Q157 207 179 181 Q176 210 157 214 Q141 210 136 186z" fill="#36506e"/>
    <path d="M146 196c6 8 17 8 23 0" fill="none" stroke="#ff8fa6" stroke-width="4" stroke-linecap="round"/>
  </g>
</svg>
