<svg xmlns="http://www.w3.org/2000/svg" viewBox="0 0 240 260" role="img" aria-label="Bardakta su">
  <defs>
    <linearGradient id="glassStroke" x1="0" y1="0" x2="0" y2="1">
      <stop offset="0" stop-color="#d8f3ff"/>
      <stop offset="1" stop-color="#6ab6de"/>
    </linearGradient>
    <linearGradient id="glassFill" x1="0" y1="0" x2="0" y2="1">
      <stop offset="0" stop-color="#ffffff" stop-opacity="0.88"/>
      <stop offset="1" stop-color="#dff4ff" stop-opacity="0.6"/>
    </linearGradient>
    <linearGradient id="waterFill" x1="0" y1="0" x2="0" y2="1">
      <stop offset="0" stop-color="#bdeeff"/>
      <stop offset="1" stop-color="#4fb1e5"/>
    </linearGradient>
    <radialGradient id="shine" cx="0.2" cy="0.2" r="0.8">
      <stop offset="0" stop-color="#ffffff" stop-opacity="0.9"/>
      <stop offset="1" stop-color="#ffffff" stop-opacity="0"/>
    </radialGradient>
    <filter id="shadow" x="-30%" y="-30%" width="160%" height="180%">
      <feDropShadow dx="0" dy="10" stdDeviation="8" flood-color="#4f9bc4" flood-opacity="0.34"/>
    </filter>
    <clipPath id="glassBody">
      <path d="M56 28h128l-10 178c-1 16-14 28-30 28H96c-16 0-29-12-30-28L56 28z"/>
    </clipPath>
  </defs>

  <ellipse cx="120" cy="242" rx="70" ry="12" fill="#7bc4ea" fill-opacity="0.35"/>

  <g filter="url(#shadow)">
    <path d="M56 28h128l-10 178c-1 16-14 28-30 28H96c-16 0-29-12-30-28L56 28z"
      fill="url(#glassFill)" stroke="url(#glassStroke)" stroke-width="8" stroke-linejoin="round"/>

    <g clip-path="url(#glassBody)">
      <path d="M48 122c14-8 30-10 46-8 17 2 32 8 49 8s30-7 49-10v130H48V122z" fill="url(#waterFill)"/>
      <path d="M48 121c15-8 31-10 47-8 17 3 31 9 48 9 16 0 31-7 49-10"
        fill="none" stroke="#e8fbff" stroke-width="6" stroke-linecap="round" stroke-opacity="0.95"/>
      <path d="M42 148c18-10 33-12 50-9 16 3 29 9 47 9 19 0 33-7 55-12"
        fill="none" stroke="#7ad3ff" stroke-width="5" stroke-linecap="round" stroke-opacity="0.62"/>
    </g>

    <path d="M72 44c0-10 8-18 18-18h60c10 0 18 8 18 18" fill="none" stroke="#effbff" stroke-width="5"
      stroke-linecap="round" stroke-opacity="0.75"/>
    <ellipse cx="95" cy="82" rx="18" ry="34" fill="url(#shine)" fill-opacity="0.8"/>
    <path d="M160 70c12 20 12 74 0 112" fill="none" stroke="#f7feff" stroke-width="4" stroke-linecap="round"
      stroke-opacity="0.5"/>
  </g>
</svg>
