<svg xmlns="http://www.w3.org/2000/svg" viewBox="0 0 1024 1024" role="img" aria-label="Pofi happy face">
  <defs>
    <filter id="blushBlur" x="-30%" y="-30%" width="160%" height="160%">
      <feGaussianBlur stdDeviation="7"/>
    </filter>
    <linearGradient id="mouthHappy" x1="0%" y1="0%" x2="0%" y2="100%">
      <stop offset="0%" stop-color="#76495a"/>
      <stop offset="100%" stop-color="#4f3140"/>
    </linearGradient>
    <linearGradient id="tongueHappy" x1="0%" y1="0%" x2="0%" y2="100%">
      <stop offset="0%" stop-color="#ffa6b6"/>
      <stop offset="100%" stop-color="#f07f98"/>
    </linearGradient>
  </defs>
  <path d="M405 444C423 429 442 425 460 428" fill="none" stroke="#3a3439" stroke-width="10" stroke-linecap="round"/>
  <path d="M568 428C586 425 605 429 621 444" fill="none" stroke="#3a3439" stroke-width="10" stroke-linecap="round"/>
  <path d="M404 529C428 567 480 567 504 529" fill="none" stroke="#262126" stroke-width="10" stroke-linecap="round"/>
  <path d="M548 529C572 567 624 567 648 529" fill="none" stroke="#262126" stroke-width="10" stroke-linecap="round"/>
  <ellipse cx="392" cy="585" rx="40" ry="23" fill="#ffc6da" opacity="0.85" filter="url(#blushBlur)"/>
  <ellipse cx="670" cy="549" rx="40" ry="23" fill="#ffc6da" opacity="0.85" filter="url(#blushBlur)"/>
  <path d="M482 599C497 611 555 611 570 599C585 612 593 631 591 651C587 685 558 714 526 714C494 714 465 685 461 651C459 631 467 612 482 599Z" fill="url(#mouthHappy)"/>
  <path d="M492 611C506 622 546 622 560 611" fill="none" stroke="#926171" stroke-width="4" stroke-linecap="round" opacity="0.62"/>
  <path d="M498 651C512 668 540 668 554 651C554 676 541 690 526 690C511 690 498 676 498 651Z" fill="url(#tongueHappy)"/>
  <ellipse cx="526" cy="642" rx="18" ry="9" fill="#ffbac5" opacity="0.25"/>
</svg>
